<?xml version="1.0" encoding="UTF-8" standalone="no"?>
<svg
   xmlns:dc="http://purl.org/dc/elements/1.1/"
   xmlns:cc="http://creativecommons.org/ns#"
   xmlns:rdf="http://www.w3.org/1999/02/22-rdf-syntax-ns#"
   xmlns:svg="http://www.w3.org/2000/svg"
   xmlns="http://www.w3.org/2000/svg"
   xmlns:sodipodi="http://sodipodi.sourceforge.net/DTD/sodipodi-0.dtd"
   xmlns:inkscape="http://www.inkscape.org/namespaces/inkscape"
   inkscape:version="1.0 (4035a4f, 2020-05-01)"
   sodipodi:docname="vib-chat.svg"
   id="svg4"
   version="1.1"
   viewBox="0 0 512 512"
   role="img"
   class="svg-inline--fa fa-viber fa-w-16"
   data-icon="viber"
   data-prefix="fab"
   focusable="false"
   aria-hidden="true">
  <metadata
     id="metadata10">
    <rdf:RDF>
      <cc:Work
         rdf:about="">
        <dc:format>image/svg+xml</dc:format>
        <dc:type
           rdf:resource="http://purl.org/dc/dcmitype/StillImage" />
        <dc:title></dc:title>
      </cc:Work>
    </rdf:RDF>
  </metadata>
  <defs
     id="defs8" />
  <sodipodi:namedview
     inkscape:current-layer="svg4"
     inkscape:window-maximized="1"
     inkscape:window-y="0"
     inkscape:window-x="0"
     inkscape:cy="256"
     inkscape:cx="256"
     inkscape:zoom="1.0761719"
     showgrid="false"
     id="namedview6"
     inkscape:window-height="708"
     inkscape:window-width="1366"
     inkscape:pageshadow="2"
     inkscape:pageopacity="0"
     guidetolerance="10"
     gridtolerance="10"
     objecttolerance="10"
     borderopacity="1"
     bordercolor="#666666"
     pagecolor="#ffffff" />
  <path
     sodipodi:nodetypes="cccsccccccccccccccccsccccccccccccccccccc"
     id="path2"
     d="M 444,49.9 C 431.3,38.2 379.9,0.9 265.3,0.4 265.3,0.4 130.2,-7.7 64.4,52.7 27.8,89.3 14.9,143 13.5,209.5 12.1,276 10.4,400.6 130.5,434.4 h 0.1 l -0.1,51.6 c 0,0 -0.8,20.9 13,25.1 16.6,5.2 26.4,-10.7 42.3,-27.8 8.7,-9.4 20.7,-23.2 29.8,-33.7 82.2,6.9 145.3,-8.9 152.5,-11.2 C 384.7,433 478.6,421 493.8,296.4 509.6,167.8 486.2,86.6 444,49.9 Z M 457.9,287 c -12.9,104 -89,110.6 -103,115.1 -6,1.9 -61.5,15.7 -131.2,11.2 0,0 -52,62.7 -68.2,79 -5.3,5.3 -11.1,4.8 -11,-5.7 0,-6.9 0.4,-85.7 0.4,-85.7 -0.1,0 -0.1,0 0,0 C 43.1,372.7 49.1,266.6 50.2,211.1 c 1.1,-55.5 11.6,-101 42.6,-131.6 55.7,-50.5 170.4,-43 170.4,-43 96.9,0.4 143.3,29.6 154.1,39.4 35.7,30.6 53.9,103.8 40.6,211.1 z m -229,7.2 c 0.4,8.6 -12.5,9.2 -12.9,0.6 -1.1,-22 -11.4,-32.7 -32.6,-33.9 -8.6,-0.5 -7.8,-13.4 0.7,-12.9 27.9,1.5 43.4,17.5 44.8,46.2 z m 54.3,-26.7 c 1,-42.4 -25.5,-75.6 -75.8,-79.3 -8.5,-0.6 -7.6,-13.5 0.9,-12.9 58,4.2 88.9,44.1 87.8,92.5 -0.1,8.6 -13.1,8.2 -12.9,-0.3 z m 91,-28.6 c 0.1,8.6 -12.9,8.7 -12.9,0.1 -0.6,-81.5 -54.9,-125.9 -120.8,-126.4 -8.5,-0.1 -8.5,-12.9 0,-12.9 73.7,0.5 133,51.4 133.7,139.2 z"
     fill="currentColor" />
</svg>
